<?xml version="1.0" encoding="utf-8"?>
<!-- Generator: Adobe Illustrator 19.0.0, SVG Export Plug-In . SVG Version: 6.00 Build 0)  -->
<!DOCTYPE svg PUBLIC "-//W3C//DTD SVG 1.1//EN" "http://www.w3.org/Graphics/SVG/1.1/DTD/svg11.dtd">
<svg version="1.1" id="Layer_1" xmlns="http://www.w3.org/2000/svg" xmlns:xlink="http://www.w3.org/1999/xlink" x="0px" y="0px"
	 viewBox="0 0 408 208" style="enable-background:new 0 0 408 208;" xml:space="preserve">
<style type="text/css">
	.st0{fill:#009CBF;}
</style>
<g id="XMLID_1_">
	<path id="XMLID_3_" class="st0" d="M170.5,134.3c-2.4,0-3.5,1.4-3.5,4.8V159h7v-19.9C174,135.8,173,134.3,170.5,134.3z"/>
	<path id="XMLID_5_" class="st0" d="M170.5,179.8c2.4,0,3.5-1.4,3.5-4.8v-14h-7v14C167,178.4,168,179.8,170.5,179.8z"/>
	<path id="XMLID_9_" class="st0" d="M126.4,108H82.6c-6.1,0-11.6,4.5-11.6,10.6V159h25v-31h9v31h32v-40.4
		C137,112.5,132.5,108,126.4,108z"/>
	<path id="XMLID_14_" class="st0" d="M193.4,108h-43.8c-6.1,0-11.6,4.5-11.6,10.6V159h21v-16.5c0-7,0.2-8.5,1.8-11.1
		c1.9-2.9,5.6-4.8,9.7-4.8c4.2,0,7.8,1.9,9.7,4.8c1.6,2.6,1.8,4.1,1.8,11.1V159h22v-40.4C204,112.5,199.5,108,193.4,108z"/>
	<path id="XMLID_17_" class="st0" d="M32,173.3c0,5.1,0.9,6.6,3.5,6.6c2.9,0,3.9-1.7,3.9-8c0-1.8-0.1-3.9-0.2-5.9h8.2
		c0.1,3,0.1,4.4,0.1,6c0,10.5-3.9,15.5-12,15.5c-7.7,0-11.7-4.8-11.7-14.2V161H3v32.4c0,6.1,5.5,11.6,11.6,11.6h43.8
		c6.1,0,10.6-5.5,10.6-11.6V161H32V173.3z"/>
	<path id="XMLID_18_" class="st0" d="M105,179h11v8H96v-26H71v32.4c0,6.1,5.5,11.6,11.6,11.6h43.8c6.1,0,10.6-5.5,10.6-11.6V161h-32
		V179z"/>
	<path id="XMLID_19_" class="st0" d="M58.4,108H14.6C8.5,108,3,112.5,3,118.6V159h21v-18.2c0-9.4,4-14.1,11.7-14.1
		c8,0,12,5.2,12,15.5c0,1.4,0,1.8-0.2,4.8h-8.2c0.2-2,0.1-2.8,0.1-4.2c0-6.6-0.9-8.5-3.8-8.5c-2.7,0-3.5,1.3-3.5,6.5V159h37v-40.4
		C69,112.5,64.5,108,58.4,108z"/>
	<path id="XMLID_20_" class="st0" d="M182,171.5c0,7.1-0.1,8.5-1.7,11.1c-1.9,3-5.5,4.9-9.7,4.9c-4.2,0-7.8-1.9-9.8-4.9
		c-1.6-2.6-1.8-4.1-1.8-11.1V161h-21v32.4c0,6.1,5.5,11.6,11.6,11.6h43.8c6.1,0,10.6-5.5,10.6-11.6V161h-22V171.5z"/>
	<path id="XMLID_21_" class="st0" d="M370.7,135H370v24h7v-17.8C377,136.7,375.1,135,370.7,135z"/>
	<path id="XMLID_22_" class="st0" d="M385,173c0,4.4-1.4,8.2-3.8,10.6c-2.5,2.5-5.3,3.5-11,3.5H361v-26h-22v32.4
		c0,6.1,5.5,11.6,11.6,11.6h43.8c6.1,0,10.6-5.5,10.6-11.6V161h-20V173z"/>
	<path id="XMLID_23_" class="st0" d="M250.8,175.2c0,7.9-4.3,12.3-12,12.3c-4.4,0-7.5-1.4-9.8-4.5c-1.9-2.7-2.5-5.1-2.5-10.3
		c0-1.2,0.1-1.8,0.2-3.2l8.4-0.4v2.6c0,6.1,0.8,8.1,4,8.1c2.5,0,3.5-2,3.5-5.8c0-3.9-1-6.2-5-11.6l-0.9-1.3H205v32.4
		c0,6.1,5.5,11.6,11.6,11.6h43.8c6.1,0,10.6-5.5,10.6-11.6V161h-24.6C249.2,165.8,250.8,170.9,250.8,175.2z"/>
	<path id="XMLID_49_" class="st0" d="M394.4,108h-43.8c-6.1,0-11.6,4.5-11.6,10.6V159h22v-31h9.1c5.8,0,8.5,0.6,11,3
		c2.5,2.4,3.8,5.7,3.8,10.1V159h20v-40.4C405,112.5,400.5,108,394.4,108z"/>
	<path id="XMLID_50_" class="st0" d="M370.7,179c4.5,0,6.3-1.4,6.3-6v-12h-7v18H370.7z"/>
	<path id="XMLID_51_" class="st0" d="M260.4,108h-43.8c-6.1,0-11.6,4.5-11.6,10.6V159h30.2l-1.8-2.7c-5-7.6-6.7-11.7-6.7-16.9
		c0-7.8,4.7-12.8,12.1-12.8c5.6,0,9.7,3.2,10.8,8.6c0.4,2.2,0.4,2.5,0.4,7.3l-8.1,0.8c0-3-0.1-4.1-0.3-5.3c-0.3-2.4-1.6-3.7-3.5-3.7
		c-2.2,0-3.5,1.9-3.5,5.5c0,3.6,0.4,4.4,5.8,12.7l4.2,6c0.1,0.2,0.2,0.3,0.3,0.5H271v-40.4C271,112.5,266.5,108,260.4,108z"/>
	<path id="XMLID_52_" class="st0" d="M306,179h12v8h-21v-26h-25v32.4c0,6.1,5.5,11.6,11.6,11.6h43.8c6.1,0,10.6-5.5,10.6-11.6V161
		h-32V179z"/>
	<path id="XMLID_53_" class="st0" d="M327.4,108h-43.8c-6.1,0-11.6,4.5-11.6,10.6V159h25v-31h20v7h-11v17h8v7h24v-40.4
		C338,112.5,333.5,108,327.4,108z"/>
</g>
<g id="XMLID_6_">
	<path id="XMLID_7_" class="st0" d="M117.2,83h-8.1l-1.5-13h-7.4l-1.4,13h-8l3.7-27H71v33.4c0,6.1,5.5,11.6,11.6,11.6h43.8
		c6.1,0,10.6-5.5,10.6-11.6V56h-23.3L117.2,83z"/>
	<path id="XMLID_8_" class="st0" d="M58.4,4H14.6C8.5,4,3,8.5,3,14.6V55h21V37c0-9.4,4-14.2,11.7-14.2c7.9,0,11.9,5.2,11.9,15.4
		c0,1.2,0,2.7-0.1,4.7h-8.2c0.2-2,0.1-2.8,0.1-4.1c0-6.6-0.9-8.4-3.8-8.4c-2.7,0-3.5,1.3-3.5,6.5v18h4v-2h11v2h22V14.6
		C69,8.5,64.5,4,58.4,4z"/>
	<path id="XMLID_10_" class="st0" d="M47,83h-3.9l-1.3-4.2c-2.3,3.4-4.8,4.9-7.6,4.9c-3.5,0-6.8-2-8.4-5.2C24.4,76,24,73.6,24,68.3
		V56H3v33.4C3,95.5,8.5,101,14.6,101h43.8c6.1,0,10.6-5.5,10.6-11.6V56H47V83z"/>
	<polygon id="XMLID_11_" class="st0" points="106.7,62 106.1,56 101.7,56 101.1,62 	"/>
	<path id="XMLID_12_" class="st0" d="M32,56v12.3c0,4.3,0.2,5,0.7,5.9c0.6,1.2,1.7,1.9,3,1.9c1.3,0,2.4-0.8,2.9-2.1
		c0.4-1,0.4-1.9,0.4-5.7V60h-3v-4H32z"/>
	<path id="XMLID_13_" class="st0" d="M126.4,4H82.6C76.5,4,71,8.5,71,14.6V55h23.6l4.2-31h10.6l4,31H137V14.6
		C137,8.5,132.5,4,126.4,4z"/>
	<polygon id="XMLID_16_" class="st0" points="101.8,55 106,55 103.9,34.6 	"/>
	<path id="XMLID_41_" class="st0" d="M260.4,4h-43.8C210.5,4,205,8.5,205,14.6V55h23V24h20v7h-12v17h9v7h26V14.6
		C271,8.5,266.5,4,260.4,4z"/>
	<path id="XMLID_56_" class="st0" d="M236,56v19h13v8h-21V56h-23v33.4c0,6.1,5.5,11.6,11.6,11.6h43.8c6.1,0,10.6-5.5,10.6-11.6V56
		h-26H236z"/>
	<path id="XMLID_57_" class="st0" d="M175,83h-9V56h-28v33.4c0,6.1,5.5,11.6,11.6,11.6h43.8c6.1,0,10.6-5.5,10.6-11.6V56h-29V83z"/>
	<path id="XMLID_58_" class="st0" d="M193.4,4h-43.8C143.5,4,138,8.5,138,14.6V55h28V31h-7v-7h24v7h-8v24h29V14.6
		C204,8.5,199.5,4,193.4,4z"/>
</g>
</svg>
